<svg width="12" height="19" viewBox="0 0 12 19" fill="none" xmlns="http://www.w3.org/2000/svg">
<path d="M6.38991 8.4C4.11991 7.81 3.38991 7.2 3.38991 6.25C3.38991 5.16 4.39991 4.4 6.08991 4.4C7.86991 4.4 8.52991 5.25 8.58991 6.5H10.7999C10.7299 4.78 9.67991 3.2 7.58991 2.69V0.5H4.58991V2.66C2.64991 3.08 1.08991 4.34 1.08991 6.27C1.08991 8.58 2.99991 9.73 5.78991 10.4C8.28991 11 8.78991 11.88 8.78991 12.81C8.78991 13.5 8.29991 14.6 6.08991 14.6C4.02991 14.6 3.21991 13.68 3.10991 12.5H0.909912C1.02991 14.69 2.66991 15.92 4.58991 16.33V18.5H7.58991V16.35C9.53991 15.98 11.0899 14.85 11.0899 12.8C11.0899 9.96 8.65991 8.99 6.38991 8.4Z" fill="#A7A7A7"/>
</svg>
