<svg width="20" height="19" viewBox="0 0 20 19" fill="none" xmlns="http://www.w3.org/2000/svg">
<path d="M5.79947 10.8321L8.62947 8.00214L2.43946 1.82214C1.95946 1.34214 1.12947 1.47214 0.829465 2.09214C0.119465 3.58214 0.379465 5.41214 1.60947 6.65214L5.79947 10.8321ZM12.5795 9.02214C14.1095 9.73214 16.2595 9.23214 17.8495 7.64214C19.7595 5.73214 20.1295 2.99215 18.6595 1.52214C17.1995 0.0621449 14.4595 0.422145 12.5395 2.33214C10.9495 3.92214 10.4495 6.07214 11.1595 7.60214L2.09947 16.6621C1.70947 17.0521 1.70947 17.6821 2.09947 18.0721C2.48947 18.4621 3.11947 18.4621 3.50947 18.0721L9.69946 11.9021L15.8795 18.0821C16.2695 18.4721 16.8995 18.4721 17.2895 18.0821C17.6795 17.6921 17.6795 17.0621 17.2895 16.6721L11.1095 10.4921L12.5795 9.02214Z" fill="#A7A7A7"/>
</svg>
