<svg width="40" height="11" viewBox="0 0 40 11" fill="none" xmlns="http://www.w3.org/2000/svg">
<g clip-path="url(#clip0_188_1276)">
<path d="M5.65902 8.51718V8.08151H8.16223V11H0V8.51756H0.665724V2.46943H0V0H8.16261V2.90702H5.65941V2.46943H3.71547V4.26719H4.16828V3.82961H6.65837V7.17039H4.1679V6.73472H3.71508V8.51756L5.65902 8.51718ZM6.27152 9.12459H3.10259V6.1273H4.76689V6.56297H6.04511V4.42364H4.76689V4.8727H3.10259V1.86202H6.27152V2.31108H7.54973V0.594409H0.612497V1.86202H1.27822V9.12459H0.612497V10.3926H7.54973V8.68892H6.27152V9.12459Z" fill="#E31640"/>
<path d="M11.9313 9.01901H13.5293V8.49077H15.5265V10.9996H8.96143V9.01901H9.49408V4.17271H8.96143V2.19211H12.4636V4.17271H11.9313V9.01901ZM11.9846 2.68056H9.45474V3.69725H9.98739V9.50746H9.45474V10.5112H15.0474V8.98114H14.0222V9.50938H11.4523V3.69764H11.985L11.9846 2.68056Z" fill="#E31640"/>
<path d="M19.7734 4.17271V2.19211H23.4352V4.17271H22.6364L21.0254 9.01901H21.4793V10.9996H16.7506V9.01901H17.1363L15.5118 4.17271H14.8067V2.19211H18.3752V4.17271H18.0956L19.081 7.1042L20.0665 4.17271H19.7734ZM17.4032 3.69725H17.8958V2.68056H15.2992V3.69725H15.845L17.8025 9.50746H17.2432V10.5112H20.9845V9.50746H20.3608L22.3047 3.69725H22.9574V2.68056H20.2528V3.69725H20.7465L19.0822 8.66252L17.4032 3.69725Z" fill="#E31640"/>
<path d="M29.2142 4.17271H28.7483L30.3729 9.01901H30.9055V10.9996H27.4967V9.01901H27.8029L27.6699 8.60973H25.9654L25.8189 9.01901H26.112V10.9996H22.7178V9.01901H23.2505L24.8751 4.17271H24.4894V2.19211H29.2165L29.2142 4.17271ZM24.9665 3.69725H25.5389L23.5814 9.50746H23.2084V10.5112H25.6187V9.50746H25.1393L25.6052 8.12089H28.0154L28.4814 9.50746H27.9888V10.5112H30.4122V9.50746H30.0392L28.0818 3.69725H28.7209V2.68056H24.9657L24.9665 3.69725ZM27.7759 7.40753H25.8451L26.8171 4.52882L27.7759 7.40753ZM27.217 7.01164L26.8174 5.80981L26.4048 7.01164H27.217Z" fill="#E31640"/>
<path d="M34.6742 7.0648V9.01901H35.22V10.9996H31.7043V9.01901H32.2369V4.17271H31.7043V2.19211H34.594L37.0309 6.21947V4.17271H36.4982V2.19211H40.0004V4.17271H39.4677V9.01901H40.0004V10.9996H37.0575L34.6742 7.0648ZM34.2499 2.68056H32.1992V3.69725H32.7318V9.50746H32.1992V10.5112H34.7425V9.50746H34.1967V5.21579L37.4057 10.5112H39.5228V9.50746H38.9902V3.69764H39.5228V2.68056H36.993V3.69725H37.5257V8.09603L34.2499 2.68056Z" fill="#E31640"/>
</g>
<defs>
<clipPath id="clip0_188_1276">
<rect width="40" height="11" fill="white"/>
</clipPath>
</defs>
</svg>
