<svg width="16" height="15" viewBox="0 0 16 15" fill="none" xmlns="http://www.w3.org/2000/svg">
<path d="M1 10.5H15C15.55 10.5 16 10.05 16 9.5C16 8.95 15.55 8.5 15 8.5H1C0.45 8.5 0 8.95 0 9.5C0 10.05 0.45 10.5 1 10.5ZM1 14.5H15C15.55 14.5 16 14.05 16 13.5C16 12.95 15.55 12.5 15 12.5H1C0.45 12.5 0 12.95 0 13.5C0 14.05 0.45 14.5 1 14.5ZM1 6.5H15C15.55 6.5 16 6.05 16 5.5C16 4.95 15.55 4.5 15 4.5H1C0.45 4.5 0 4.95 0 5.5C0 6.05 0.45 6.5 1 6.5ZM0 1.5C0 2.05 0.45 2.5 1 2.5H15C15.55 2.5 16 2.05 16 1.5C16 0.95 15.55 0.5 15 0.5H1C0.45 0.5 0 0.95 0 1.5Z" fill="#A7A7A7"/>
</svg>
