<svg width="20" height="21" viewBox="0 0 20 21" fill="none" xmlns="http://www.w3.org/2000/svg">
<path d="M17.4999 10.5C17.4999 10.27 17.4899 10.05 17.4699 9.82L19.3299 8.41C19.7299 8.11 19.8399 7.55 19.5899 7.11L17.7199 3.88C17.4699 3.44 16.9299 3.26 16.4699 3.46L14.3199 4.37C13.9499 4.11 13.5599 3.88 13.1499 3.69L12.8599 1.38C12.7999 0.88 12.3699 0.5 11.8699 0.5H8.13991C7.62991 0.5 7.19991 0.88 7.13991 1.38L6.84991 3.69C6.43991 3.88 6.04991 4.11 5.67991 4.37L3.52991 3.46C3.06991 3.26 2.52991 3.44 2.27991 3.88L0.409909 7.12C0.159909 7.56 0.269909 8.11 0.669909 8.42L2.52991 9.83C2.50991 10.05 2.49991 10.27 2.49991 10.5C2.49991 10.73 2.50991 10.95 2.52991 11.18L0.669909 12.59C0.269909 12.89 0.159909 13.45 0.409909 13.89L2.27991 17.12C2.52991 17.56 3.06991 17.74 3.52991 17.54L5.67991 16.63C6.04991 16.89 6.43991 17.12 6.84991 17.31L7.13991 19.62C7.19991 20.12 7.62991 20.5 8.12991 20.5H11.8599C12.3599 20.5 12.7899 20.12 12.8499 19.62L13.1399 17.31C13.5499 17.12 13.9399 16.89 14.3099 16.63L16.4599 17.54C16.9199 17.74 17.4599 17.56 17.7099 17.12L19.5799 13.89C19.8299 13.45 19.7199 12.9 19.3199 12.59L17.4599 11.18C17.4899 10.95 17.4999 10.73 17.4999 10.5ZM10.0399 14C8.10991 14 6.53991 12.43 6.53991 10.5C6.53991 8.57 8.10991 7 10.0399 7C11.9699 7 13.5399 8.57 13.5399 10.5C13.5399 12.43 11.9699 14 10.0399 14Z" fill="#A7A7A7"/>
</svg>
